# xmcd
#
# Track frame offsets: 
#        150
#        19531
#        35276
#        51251
#        69636
#        89083
#        106256
#        123662
#        145206
#        173263
#        194208
#        211346
#        223656
#        241884
#        257785
#        279158
#        299130
#        315031
#
# Disc length: 4315 seconds
#
# Revision: 0
# Processed by: cddbd v1.5.2PL0 Copyright (c) Steve Scherf et al.
# Submitted via: ExactAudioCopy v0.99pb4
#
DISCID=0f10d912
DTITLE=Mungo Jerry - Cool Jesus
DYEAR=2011
DGENRE=Pop
TTITLE0=Cool Jesus
TTITLE1=John Henry
TTITLE2=Far Away
TTITLE3=Let's Rock
TTITLE4=Give Us A Song
TTITLE5=Hello Baby
TTITLE6=Just Her Way
TTITLE7=Going Up The River
TTITLE8=You Can Getr It If You Want It
TTITLE9=I Lie Awake
TTITLE10=Red Leather and Chrome
TTITLE11=Lucky Girl
TTITLE12=I Wanna Live In The Suin
TTITLE13=We Are The Same
TTITLE14=Praying So Hard
TTITLE15=He's Got The Whole World In His Hands
TTITLE16=Mama Don't Allow
TTITLE17=Give Us A Song (Refrain)
EXTD=
EXTT0=
EXTT1=
EXTT2=
EXTT3=
EXTT4=
EXTT5=
EXTT6=
EXTT7=
EXTT8=
EXTT9=
EXTT10=
EXTT11=
EXTT12=
EXTT13=
EXTT14=
EXTT15=
EXTT16=
EXTT17=
PLAYORDER=
